<?xml version="1.0" encoding="UTF-8" standalone="no"?>
<svg
   xmlns:dc="http://purl.org/dc/elements/1.1/"
   xmlns:cc="http://creativecommons.org/ns#"
   xmlns:rdf="http://www.w3.org/1999/02/22-rdf-syntax-ns#"
   xmlns:svg="http://www.w3.org/2000/svg"
   xmlns="http://www.w3.org/2000/svg"
   xmlns:sodipodi="http://sodipodi.sourceforge.net/DTD/sodipodi-0.dtd"
   xmlns:inkscape="http://www.inkscape.org/namespaces/inkscape"
   width="210mm"
   height="297mm"
   viewBox="0 0 210 297"
   version="1.1"
   id="svg8"
   inkscape:version="1.0.1 (3bc2e813f5, 2020-09-07)"
   sodipodi:docname="values_of_beta.svg">
  <defs
     id="defs2" />
  <sodipodi:namedview
     id="base"
     pagecolor="#ffffff"
     bordercolor="#666666"
     borderopacity="1.0"
     inkscape:pageopacity="0.0"
     inkscape:pageshadow="2"
     inkscape:zoom="0.175"
     inkscape:cx="1083.5683"
     inkscape:cy="932.79818"
     inkscape:document-units="mm"
     inkscape:current-layer="layer1"
     inkscape:document-rotation="0"
     showgrid="false"
     inkscape:window-width="1918"
     inkscape:window-height="1078"
     inkscape:window-x="1920"
     inkscape:window-y="0"
     inkscape:window-maximized="1" />
  <metadata
     id="metadata5">
    <rdf:RDF>
      <cc:Work
         rdf:about="">
        <dc:format>image/svg+xml</dc:format>
        <dc:type
           rdf:resource="http://purl.org/dc/dcmitype/StillImage" />
        <dc:title></dc:title>
      </cc:Work>
    </rdf:RDF>
  </metadata>
  <g
     inkscape:label="Layer 1"
     inkscape:groupmode="layer"
     id="layer1">
    <path
       style="fill:#ff0000;stroke-width:1;paint-order:markers stroke fill"
       id="path833"
       d="m -260.33528,-108.41772 c 6.12678,8.965916 11.35694,18.480306 16.53408,28.011444 1.91289,3.615777 4.10034,7.141633 5.52586,10.995342 0.47147,1.274564 0.83562,2.586345 1.26668,3.875135 1.09161,3.168616 1.78875,6.438588 2.58176,9.687518 0.99471,3.178511 1.37028,6.497651 2.16197,9.721334 0.72296,2.657922 0.77788,5.437087 0.95272,8.167491 0.41953,6.551608 0.19486,2.622368 0.55324,9.581849 0.0624,1.642676 0.10285,3.286326 0.18709,4.928024 0.0485,0.945631 0.38036,6.001015 0.56153,7.329846 0.0695,0.509634 -0.12294,1.705334 0.34987,1.502857 11.03508,-4.725579 9.84985,-2.662891 11.16816,-9.134617 2.76846,-13.15239 5.57125,-26.295789 8.68581,-39.371011 2.40767,-9.055782 4.11335,-18.310732 7.10999,-27.205712 0.47095,-1.397905 1.02079,-2.767975 1.53118,-4.151966 2.88101,-7.437574 6.60922,-14.483634 10.83462,-21.234344 2.18744,-3.46207 4.27199,-6.99203 6.2608,-10.57178 0,0 -9.92298,4.4386 -9.92298,4.4386 v 0 c -1.95871,3.53955 -4.01131,7.02732 -6.14161,10.46657 -4.11047,6.83179 -7.84295,13.881707 -10.61526,21.376458 -3.54489,10.210146 -5.72821,20.789847 -8.22188,31.291852 -2.98667,13.230421 -5.69424,26.53679 -9.28771,39.619692 -1.81597,5.421589 -2.55293,5.21187 8.32662,-0.863084 0.37403,-0.208854 -0.40921,-0.764699 -0.50279,-1.182746 -0.87873,-3.925466 -0.74293,-8.048145 -1.02167,-12.029092 -0.13805,-3.896199 -0.22171,-5.872015 -0.30697,-9.703216 -0.0635,-2.851816 0.10058,-5.780193 -0.71698,-8.550624 -0.8369,-3.19777 -1.32354,-6.480725 -2.23099,-9.663718 -0.7529,-3.294232 -1.50679,-6.578637 -2.66761,-9.761363 -0.0745,-0.215 -1.32,-3.811976 -1.36523,-3.924075 -1.55023,-3.84188 -3.88765,-7.309445 -5.9574,-10.874618 -5.4656,-9.396241 -10.8583,-18.838856 -16.17743,-28.317536 0,0 -9.45547,5.54549 -9.45547,5.54549 z" />
    <path
       style="fill:#ff0000;stroke-width:1;paint-order:markers stroke fill"
       id="path835"
       d="m -174.05247,-65.913166 c -8.30196,6.783271 -17.07558,13.017706 -24.73522,20.555688 -1.59045,1.565193 -3.0725,3.23686 -4.60875,4.855287 -3.37806,3.929242 -6.36693,8.160366 -8.23895,13.020643 -0.66344,1.722475 -1.26345,3.778887 -1.2284,5.671793 0.0128,0.690951 0.22941,1.362966 0.34412,2.044449 0.22786,0.500737 0.28435,1.123703 0.68359,1.502209 2.18209,2.068781 5.54477,0.06371 7.48531,-1.103842 12.36282,-7.438276 9.08661,-4.914207 15.70119,-10.580224 7.38733,-5.995114 13.03934,-13.585936 18.08378,-21.567103 3.23848,-4.664443 4.97712,-10.335352 8.80665,-14.582777 -2.83799,1.720815 -5.7522,3.321785 -8.51398,5.162444 -0.11826,0.07882 0.22597,0.204777 0.25096,0.34468 0.15657,0.876459 0.26113,1.765734 0.28503,2.655748 0.16982,6.326341 -0.75388,12.715782 -1.34733,18.995731 -1.13407,10.741959 -2.55733,21.631294 -0.78551,32.3784115 0.14998,0.5450429 0.21212,1.1222825 0.44993,1.6351289 1.77103,3.8192994 7.87886,-3.1568051 11.35143,-5.5368874 0,0 -10.14433,4.7194202 -10.14433,4.7194202 v 0 c 3.05073,-1.6840293 5.99678,-3.573444 9.15217,-5.0520882 0.25314,-0.118619 0.0796,0.650459 -0.1368,0.8274046 -0.52259,0.4272775 -1.62494,-2.5398166 -1.06669,-1.7213796 -2.34723,-10.435354 -0.97632,-21.189793 0.14169,-31.699228 0.29624,-2.58292 0.59163,-5.165942 0.88874,-7.748764 0.37476,-3.257807 1.08332,-8.34816 1.09447,-11.805674 0.004,-1.098312 0.0145,-2.227212 -0.29155,-3.282027 -0.19306,-0.665384 -0.51503,-1.974657 -1.16094,-1.724035 -3.73969,1.451049 -6.88361,4.120594 -10.32542,6.180894 -3.31379,4.524306 -5.27415,9.837301 -8.34108,14.521235 -5.11796,8.074525 -10.69954,15.240564 -18.21278,21.268496 -6.20099,5.123599 -2.86993,1.946678 2.48192,-0.139772 1.03441,-0.403269 -1.84732,1.24295 -2.84014,1.739855 -0.34989,0.175117 -2.59708,1.165389 -3.36547,0.64978 -0.36994,-0.248237 -0.39957,-0.796394 -0.59935,-1.19459 -0.0936,-0.583724 -0.27156,-1.160065 -0.28073,-1.751171 -0.0272,-1.751632 0.48798,-3.622696 1.09979,-5.224407 1.79263,-4.693071 4.72475,-8.751919 7.9892,-12.528942 1.51748,-1.586314 2.98043,-3.226652 4.55244,-4.758941 7.87748,-7.678441 16.8763,-14.071004 25.56122,-20.776602 0,0 -10.18021,4.049157 -10.18021,4.049157 z" />
    <path
       style="fill:#ff0000;stroke-width:1;paint-order:markers stroke fill"
       id="path837"
       d="m -137.52084,-117.05573 c 0.61693,16.41067 1.28228,32.875562 0.6582,49.298818 -0.40898,10.762347 -1.39313,20.02255 -2.37048,30.712603 -1.66118,13.330853 -3.1065,26.677909 -4.03604,40.079433 0,0 9.1432,-4.609503 9.1432,-4.609503 v 0 c 0.20322,-13.17297 1.20681,-26.297284 2.74205,-39.384565 0.71813,-8.850762 1.85632,-21.940565 2.24813,-30.718085 0.74738,-16.742902 0.17461,-33.526991 1.19885,-50.261951 0,0 -9.58391,4.88325 -9.58391,4.88325 z" />
    <path
       style="fill:#ff0000;stroke-width:1;paint-order:markers stroke fill"
       id="path839"
       d="m -124.04334,-33.543351 c 0.8746,6.462496 0.51526,13.004969 0.50876,19.504809 0.15273,1.274839 0.11064,3.278176 1.15301,4.3567937 1.06414,1.1011371 2.91546,1.2046 4.22843,0.5589667 10.86208,-5.3412774 9.42376,-4.4358854 15.18775,-9.5456924 4.028917,-3.669201 7.379601,-7.982375 10.05521,-12.722174 0.968187,-1.715127 2.123932,-4.162401 2.997287,-5.964007 1.341197,-2.637152 2.51709,-5.400974 4.461436,-7.672663 0.725326,-0.847436 1.965066,-1.995723 2.765084,-2.761837 1.30661,-1.107091 2.477106,-2.35912 3.641294,-3.611036 0.26544,-0.285443 0.479829,-0.626001 0.789778,-0.862364 0.104942,-0.08003 0.511683,-0.09973 0.393864,-0.04027 -3.603067,1.818449 -7.248149,3.552425 -10.872226,5.328639 -0.437568,0.862733 -0.916739,1.705597 -1.312704,2.588199 -0.832456,1.855542 -3.16951,7.821258 -3.767423,9.40852 -1.902939,5.051661 -2.559391,6.801551 -3.897294,12.141687 -0.534387,2.132963 -0.938953,4.296368 -1.40843,6.444552 -0.849223,5.145243 -1.496076,10.3466754 -1.234446,15.57167419 0.0676,1.3497943 0.32635,4.03829931 0.894769,5.43327241 0.21114,0.5181655 0.619564,0.931904 0.929346,1.3978561 1.340321,0.8319447 0.641405,0.6103604 2.064887,0.7579307 0,0 8.923214,-6.75677099 8.923214,-6.75677099 v 0 c -0.878663,0.5887431 -0.394658,0.47073534 -1.45433,0.3444 -0.280168,-0.32495171 -0.65445,-0.58823948 -0.840508,-0.97485511 -0.591883,-1.2299106 -0.963332,-3.867406 -1.063458,-5.0471503 -0.43098,-5.07808 0.143769,-10.155292 0.975426,-15.162274 0.474721,-2.125494 0.871189,-4.26999 1.42416,-6.376483 1.884106,-7.177341 4.898829,-15.000001 8.325278,-21.60443 0.487313,-0.939281 1.068597,-1.826744 1.602896,-2.740117 -3.271948,1.104328 -6.568098,2.139391 -9.815845,3.312983 -0.100079,0.03616 -0.07623,0.202453 -0.142672,0.285578 -0.228915,0.286408 -0.487463,0.547917 -0.737698,0.815898 -1.146757,1.228071 -2.348976,2.40243 -3.580616,3.545025 -1.026446,1.039289 -1.833727,1.793076 -2.728651,2.955311 -1.801326,2.339369 -2.851549,5.146524 -4.180091,7.752249 -0.962777,2.028304 -1.778497,3.84265 -2.911097,5.800312 -2.69707,4.661798 -6.12413,8.8474 -10.17129,12.402677 -3.15107,2.509019 -7.92998,6.0239622 3.38006,-1.080758 0.57346,-0.360233 -2.22932,1.419434 -3.33849,0.602477 -0.97842,-0.720648 -1.01416,-2.955724 -1.13795,-3.784956 -0.14372,-6.60448 0.15469,-13.21315 -0.20419,-19.812658 0,0 -9.90253,5.210683 -9.90253,5.210683 z" />
    <path
       style="fill:#ff0000;stroke-width:1;paint-order:markers stroke fill"
       id="path841"
       d="m -81.60859,-17.860632 c 4.557511,-1.105381 9.200118,-2.025787 13.583941,-3.735021 0.950436,-0.370571 1.867643,-0.821288 2.801466,-1.231933 6.6645,-3.816791 14.570911,-6.778183 18.860233,-13.5105 0.394607,-0.619355 0.695716,-1.29354 1.043572,-1.940311 0.800132,-2.071852 2.021353,-4.76639 0.962975,-7.001965 -0.639014,-1.349764 -1.332092,-1.451753 -2.587839,-2.142943 -0.740617,-0.08515 -1.476791,-0.280813 -2.221855,-0.255447 -2.694318,0.09172 -6.722329,1.51661 -9.036706,2.796598 -12.0959,6.689738 -9.155289,4.457213 -15.339668,9.815232 -3.387315,3.631779 -6.25465,7.825856 -8.033631,12.488023 -0.939514,2.462177 -1.17511,3.872679 -1.760683,6.412092 -0.521668,3.753128 -1.553467,8.5992639 0.152765,12.230033 0.221446,0.4712219 0.581917,0.8635532 0.872874,1.2953298 0.411043,0.317926 0.782957,0.6942004 1.233127,0.9537781 3.314481,1.91120612 7.752755,0.83525775 11.213846,0.074324 4.980879,-1.0705848 9.346258,-3.7287673 13.787088,-6.0921833 5.461712,-3.1246436 12.01569,-5.0120046 16.283358,-9.7654326 0,0 -10.251906,4.23407 -10.251906,4.23407 v 0 c -3.262383,2.765302 -1.772422,1.392082 6.757099,-3.544524 0.669917,-0.387725 -1.361218,0.73736 -2.046711,1.096824 -0.747424,0.391941 -1.501256,0.771539 -2.251885,1.157308 -4.435623,2.320993 -8.720883,5.1079312 -13.633603,6.3184094 -3.661108,0.9499116 -8.093194,2.0978318 -11.530761,-0.071808 -0.247531,-0.3269806 -0.557654,-0.6149023 -0.742595,-0.9809417 -1.709283,-3.3830247 -0.618451,-8.0666867 -0.119603,-11.5780847 0.634849,-2.614697 0.793904,-3.675431 1.816031,-6.203958 1.831891,-4.531709 4.673545,-8.599405 8.148511,-12.016994 2.220825,-1.782191 8.708713,-6.6974 -2.96957,0.844937 -0.969348,0.626046 2.08166,-0.999713 3.150063,-1.435698 2.328389,-0.950159 4.751634,-1.765851 7.296317,-1.677615 0.813612,0.318299 1.621229,0.413549 2.038781,1.291839 0.930958,1.958197 -0.500541,4.481211 -1.204502,6.225344 -1.195835,1.971985 -2.447703,3.656793 -4.17712,5.210924 -3.15277,2.833222 -5.389454,3.274723 5.208706,-2.396048 0.836489,-0.44758 -1.635151,0.962522 -2.452724,1.443783 -0.92529,0.444908 -1.829348,0.936977 -2.775866,1.334725 -4.197074,1.76369 -8.684204,2.581054 -13.084058,3.654241 0,0 -8.989467,6.703593 -8.989467,6.703593 z" />
    <path
       style="fill:#ff0000;stroke-width:1;paint-order:markers stroke fill"
       id="path843"
       d="m -29.443661,-44.728204 c -1.558536,1.936502 -3.622985,4.159033 -3.783055,6.798519 -0.03099,0.511085 0.110525,1.018069 0.165788,1.527104 0.153506,0.46636 0.25858,0.951558 0.460521,1.399082 0.520652,1.15383 1.030978,1.621571 1.836277,2.609501 1.172064,1.437875 2.361543,2.846641 3.480017,4.327191 1.881261,2.45296 2.734784,5.25072 3.100994,8.267511 -0.06453,1.255003 0.100131,2.623924 -0.299009,3.845198 -0.435535,1.332634 -1.522521,2.550608 -2.351159,3.638332 -3.213891,3.2366065 -6.948747,5.9025024 -10.620285,8.5895927 -3.712927,2.1530901 -6.975046,5.0490942 -10.7198,7.1322609 2.72011,-1.6091775 5.440222,-3.21835482 8.160334,-4.8275321 0,0 -8.682788,6.8911868 -8.682788,6.8911868 v 0 c 3.616663,-2.0154273 7.233324,-4.0308549 10.849985,-6.04628231 3.570378,-2.29115619 6.948744,-4.88229379 10.52454,-7.16948569 3.714095,-2.7583463 7.577757,-5.4416653 10.626181,-8.9564133 2.109451,-3.034427 2.618991,-4.549707 2.332239,-8.266469 -0.466021,-3.188918 -1.440071,-6.135654 -3.458177,-8.714997 -1.117087,-1.493949 -2.289695,-2.933616 -3.453487,-4.391033 -0.605429,-0.75818 -1.198187,-1.370957 -1.585513,-2.268546 -0.16021,-0.371271 -0.226315,-0.776414 -0.339472,-1.164621 -0.0037,-0.397561 -0.07327,-0.800013 -0.01099,-1.192684 0.398752,-2.51411 2.472249,-4.528513 4.100604,-6.307793 0,0 -10.333748,4.280378 -10.333748,4.280378 z" />
    <path
       style="fill:#ff0000;stroke-width:1;paint-order:markers stroke fill"
       id="path845"
       d="m 61.931832,-29.068731 c 2.901514,-6.948167 6.201196,-13.80862 10.637068,-19.925331 0.803627,-1.108139 1.701935,-2.144427 2.552903,-3.21664 0.824955,-0.77705 1.599534,-1.611321 2.474863,-2.331151 0.725974,-0.597006 3.124528,-2.087788 2.315937,-1.608582 -2.358916,1.397995 -4.862888,2.613985 -6.971059,4.367408 -0.634931,0.528087 1.588246,-0.493154 2.410124,-0.573955 2.307654,-0.226873 2.970692,0.171429 5.148122,0.774033 0.779656,0.393607 1.611207,0.697965 2.338967,1.180825 3.590819,2.382459 5.458296,6.530557 6.269908,10.633236 0.218715,1.105606 0.262319,2.238751 0.393481,3.358126 -0.005,4.993754 -1.72978,9.590392 -5.083826,13.302638 -0.652135,0.72178 -1.391359,1.359816 -2.087039,2.039724 -2.283095,1.836271 -2.386687,2.038799 -4.857125,3.562041 -0.749538,0.462157 -3.046122,1.767162 -2.299708,1.29997 10.213408,-6.392746 8.66014,-4.593947 3.414299,-3.129539 -3.194013,0.803369 -6.404554,0.853675 -9.604853,0.136807 -3.100806,-1.025274 -5.050026,-2.270356 -6.444644,-5.268795 -1.448129,-4.242077 1.01528,-7.938981 2.963817,-11.575985 0,0 -9.80308,4.412654 -9.80308,4.412654 v 0 c -2.073783,4.043482 -4.478382,7.999272 -2.810957,12.625998 0.222779,0.471609 0.401757,0.966518 0.668335,1.414827 1.377368,2.316333 3.888386,3.749489 6.336956,4.652767 3.355038,0.964872 6.527046,1.038484 9.952328,0.302566 6.44212,-1.587493 7.742987,-3.142939 15.490122,-7.480828 2.527419,-1.415189 4.876358,-3.132378 6.996339,-5.106006 0.68615,-0.727208 1.420874,-1.411472 2.058443,-2.181623 3.300076,-3.986332 4.791755,-8.866391 4.621543,-14.00828 -0.163457,-1.160383 -0.247973,-2.334652 -0.490371,-3.481147 -0.924152,-4.37102 -2.851285,-8.784381 -6.58745,-11.464972 -0.758187,-0.543976 -1.634498,-0.900798 -2.451748,-1.351198 -2.150724,-0.723876 -3.115712,-1.250302 -5.435113,-1.224672 -0.862687,0.0095 -1.78004,0.01852 -2.558648,0.39012 -6.60976,3.154646 -11.576799,5.435066 -16.142441,10.531481 -0.803854,1.08069 -1.648941,2.131901 -2.411563,3.242074 -4.386628,6.385761 -7.671411,13.424098 -11.098596,20.345674 0,0 10.094666,-4.644265 10.094666,-4.644265 z" />
    <path
       style="fill:#ff0000;stroke-width:1;paint-order:markers stroke fill"
       id="path847"
       d="m 112.41393,-7.7700999 c 2.92616,-9.6087391 4.22535,-19.5986481 6.00224,-29.4563511 0.61309,-3.401264 1.2811,-6.792399 1.92165,-10.188599 0.69689,-3.478686 1.41593,-6.953009 2.09068,-10.436055 1.41063,-7.281638 2.32679,-12.834125 3.82782,-20.077203 1.76101,-8.497612 3.87372,-16.881834 6.14953,-25.252632 1.98582,-5.83419 3.61792,-11.87961 6.7249,-17.25877 1.04613,-1.81117 2.84193,-4.33457 4.5983,-5.64675 0.75277,-0.56239 1.6727,-0.85662 2.50905,-1.28493 -2.24051,1.63432 -5.07045,2.67476 -6.72152,4.90295 -0.56432,0.76157 1.89876,0.14063 2.8205,0.36166 0.98354,0.23584 1.93232,0.60839 2.86423,1.00149 2.60956,1.10076 4.81562,2.65031 7.00613,4.40723 1.4636,1.39028 2.95342,2.95385 3.65144,4.90336 0.20108,0.5616 0.24604,1.16737 0.36906,1.75106 0,0 9.6908,-5.2216 9.6908,-5.2216 v 0 c -0.16917,-0.6653 -0.25886,-1.35603 -0.5075,-1.99589 -0.8045,-2.07032 -2.38701,-3.74978 -3.98742,-5.22107 -3.05455,-2.4752 -6.41069,-4.67872 -10.21558,-5.84383 -0.96582,-0.29575 -2.00359,-0.93329 -2.96526,-0.62432 -4.22615,1.35777 -8.09224,3.6512 -12.13835,5.4768 -0.77361,0.51597 -1.62889,0.92667 -2.32081,1.5479 -1.64057,1.47297 -3.20966,3.93559 -4.1885,5.82569 -2.81277,5.43135 -4.30272,11.4094 -6.15791,17.197121 -0.69084,2.623997 -1.42797,5.236242 -2.07254,7.871989 -3.86191,15.792146 -6.23233,31.887707 -9.61078,47.780278 -0.71133,3.436218 -1.44484,6.867917 -2.13399,10.308654 -2.00242,9.997605 -3.43543,20.268504 -7.34397,29.7541355 0,0 10.1378,-4.5823174 10.1378,-4.5823174 z" />
    <path
       style="fill:#ff0000;stroke-width:1;paint-order:markers stroke fill"
       id="path849"
       d="m 104.92782,-47.552705 c 0.66032,0.03331 1.3198,0.09721 1.98096,0.09994 1.86958,0.0077 5.07774,-0.171939 6.85832,-0.257421 4.38745,-0.210634 8.77338,-0.391146 13.1635,-0.536289 5.41417,0.1396 10.96271,-0.755613 16.34539,0.12773 0.0475,0.02976 0.095,0.05953 0.14255,0.08929 0,0 9.55217,-5.956292 9.55217,-5.956292 v 0 c -0.19442,-0.177186 -0.38885,-0.354372 -0.58328,-0.531561 -5.57648,-0.895424 -11.31146,0.154427 -16.91774,0.02334 -4.35675,0.145717 -8.71302,0.302588 -13.06947,0.456827 -1.04965,0.03716 -5.25569,0.204915 -6.53638,0.173003 -0.60015,-0.01495 -1.19572,-0.109003 -1.79357,-0.163507 0,0 -9.14245,6.474936 -9.14245,6.474936 z" />
    <path
       style="fill:#ff0000;stroke-width:1;paint-order:markers stroke fill"
       id="path851"
       d="m 242.44363,-113.81846 c 3.16133,9.935 3.73891,20.524552 4.23423,30.875425 0.25147,9.848495 0.28873,19.713162 -0.073,29.55953 0.0272,6.48249 -1.13603,12.843203 -2.06144,19.23234 -0.43586,4.471596 -1.41193,8.852205 -2.22847,13.263183 -0.61255,4.35741 -1.48325,8.66926 -2.38998,12.9724743 1.59874,-1.1291491 -1.43823,2.9166515 -0.67887,2.5033065 3.52402,-1.918231 7.14311,-3.7776462 10.23527,-6.3343758 0.7816,-0.646262 0.58221,-1.944213 0.92946,-2.897091 1.31196,-3.600083 2.20114,-5.402151 3.81121,-9.010182 3.63167,-7.627342 8.47831,-14.735659 14.67065,-20.5266 0.85466,-0.799258 1.79316,-1.503878 2.68973,-2.255816 0.81637,-0.57926 1.61224,-1.188577 2.44914,-1.737778 0.69144,-0.453739 2.83893,-1.698104 2.13217,-1.268635 -2.51748,1.529765 -5.14715,2.885847 -7.56436,4.569558 -0.47728,0.332449 1.10459,-0.387281 1.68019,-0.470956 1.14795,-0.166875 1.84806,0.08604 2.95219,0.322178 2.41144,0.754348 4.28437,2.630114 5.09104,5.038799 0.22016,0.657426 0.33525,1.345486 0.50286,2.018228 0.81844,4.929712 0.16801,9.789817 -1.79504,14.38009 -0.42314,0.989479 -0.9503,1.931174 -1.42544,2.896761 -2.31571,3.855455 -5.80774,6.86535 -9.47954,9.405674 -0.95457,0.66041 -3.96396,2.4160032 -2.95405,1.8438092 2.03994,-1.1557772 4.03032,-2.3968952 6.04546,-3.5953432 -5.48393,2.659199 -11.24471,4.7630476 -17.16924,6.1915759 -2.77352,0.4209793 -1.42436,0.2962619 -4.04463,0.4040322 0,0 -8.88783,6.48686315 -8.88783,6.48686315 v 0 c 2.75586,-0.0090158 1.34125,0.07041575 4.24218,-0.26590169 6.03702,-1.37737486 11.8719,-3.53887546 17.51051,-6.08583766 7.37207,-4.2110959 17.40493,-8.7900999 22.81635,-16.0597209 0.65294,-0.87713 1.1539,-1.857734 1.73085,-2.786601 0.46056,-1.000722 0.97393,-1.978774 1.38163,-3.002166 1.91714,-4.812522 2.46571,-9.907492 1.67495,-15.02079 -0.17653,-0.746816 -0.28991,-1.511443 -0.52959,-2.240447 -0.68477,-2.082773 -2.28767,-4.134942 -4.16865,-5.280951 -0.44185,-0.269211 -0.95144,-0.406992 -1.42716,-0.610489 -0.96271,-0.279643 -2.26957,-0.734004 -3.28975,-0.717386 -0.6232,0.01016 -1.28476,0.04059 -1.84243,0.318958 -5.48581,2.738369 -10.80735,5.523288 -15.58322,9.307973 -0.85166,0.769501 -1.74041,1.499854 -2.55499,2.308508 -6.01095,5.967174 -10.68563,13.133398 -14.31504,20.755205 -1.52955,3.30661 -2.80491,5.913284 -4.11366,9.271154 -0.40983,1.0515072 -2.23942,3.2185222 -1.11106,3.1981561 9.71178,-0.1752886 9.34828,-0.9542317 10.28987,-5.8488661 0.85951,-4.308059 1.67218,-8.625672 2.33969,-12.968257 0.8409,-4.407521 1.76096,-8.799866 2.14242,-13.279203 0.84851,-6.388132 1.88154,-12.758944 1.79001,-19.227202 0.22093,-9.822826 0.0655,-19.653446 -0.28774,-29.471564 -0.60181,-10.529202 -1.31743,-21.135182 -3.56343,-31.461602 0,0 -9.80341,5.29998 -9.80341,5.29998 z" />
    <path
       style="fill:#ff0000;stroke-width:1;paint-order:markers stroke fill"
       id="path853"
       d="m 303.4266,-26.974726 c 3.72242,0.399442 7.45982,0.519047 11.19566,0.297847 1.58795,-0.266517 3.4218,-0.275206 4.85624,-1.137534 7.27228,-4.371866 9.65642,-3.419075 11.35766,-8.885181 0.71657,-2.92766 -0.13327,-5.513451 -1.60393,-8.025252 -0.26842,-0.382177 -1.04487,-1.558303 -1.44891,-1.868387 -2.37604,-1.823492 -5.71175,-1.335974 -8.46564,-1.098886 -3.33174,0.507638 -6.71435,1.323734 -9.66374,3.023857 -11.21336,6.463763 -8.20211,4.149963 -13.40813,8.435805 -2.50921,2.38787 -4.66056,5.113068 -6.10611,8.278157 -0.92221,2.019282 -1.12255,2.994289 -1.73956,5.114966 -1.25306,5.861839 -0.52345,9.190876 2.30582,14.3384981 2.80329,4.02152 6.32815,5.8210285 10.9088,7.1897725 5.87779,1.30641202 11.69672,0.1308105 17.31912,-1.6645807 8.14607,-3.3669941 15.94416,-7.7765219 23.02867,-13.0267769 1.69328,-1.821186 1.03865,-0.851572 2.04922,-2.849351 0,0 -10.12914,4.506169 -10.12914,4.506169 v 0 c -1.10255,1.630448 -0.4299,0.816933 -2.09828,2.37186 -3.11034,2.2048894 -10.6103,6.4581045 3.12306,-1.343519 0.79259,-0.450249 -1.58126,0.908004 -2.38625,1.335653 -2.36223,1.254905 -2.56096,1.282667 -5.02367,2.3500892 -5.43936,1.9155939 -11.08567,3.2552441 -16.86526,2.1438219 -4.26418,-1.1529412 -7.77494,-2.7944431 -10.42445,-6.4800851 -2.76471,-4.884587 -3.26937,-7.973349 -1.97011,-13.52311 1.71212,-5.375304 3.80936,-9.065932 8.12953,-12.800825 4.11105,-3.165647 2.8751,-2.053397 -5.21972,2.438977 -0.7402,0.410773 1.46542,-0.852771 2.2334,-1.208834 1.31823,-0.611166 3.34375,-1.284128 4.75496,-1.636014 0.79822,-0.199035 1.61311,-0.32395 2.41966,-0.485923 2.16228,-0.273706 5.69905,-0.942382 7.68501,0.365623 0.40688,0.267975 1.10792,1.314539 1.36337,1.666793 1.35292,2.251217 2.0333,4.555611 1.13837,7.144435 -1.88724,4.147912 -5.65089,4.280614 7.40543,-2.740972 0.40841,-0.219631 -0.76449,0.535889 -1.18954,0.721227 -1.10578,0.482142 -2.34186,0.625285 -3.51097,0.836102 -3.61649,0.330618 -7.24152,0.237453 -10.84321,-0.255212 0,0 -9.17736,6.47079 -9.17736,6.47079 z" />
    <path
       style="fill:#ff0000;stroke-width:1;paint-order:markers stroke fill"
       id="path855"
       d="m 359.46577,-100.23516 c 2.36455,11.516528 0.99121,23.368636 -0.13938,34.945702 -1.30977,12.283635 -2.20978,24.601564 -3.45618,36.890176 -0.51416,5.592502 -1.62528,11.256274 -0.42375,16.824265 0.57412,1.7145786 0.78319,3.5435342 1.44269,5.2309755 0.42963,1.0993112 1.20407,2.584469 1.71651,3.6118821 1.54067,3.5773904 3.74888,7.0763719 4.37809,10.9689901 -0.11615,1.0640494 0.17767,0.7712673 -0.59944,1.0904617 0,0 10.29941,-4.4944141 10.29941,-4.4944141 v 0 c 0.23706,-1.1195719 0.18185,-0.5099206 0.0897,-1.8342512 -0.9461,-3.9177576 -3.06067,-7.4539201 -4.62645,-11.1423157 -0.54787,-1.1920315 -1.09379,-2.2920934 -1.52389,-3.5282264 -0.5841,-1.678663 -0.85403,-3.459424 -1.43095,-5.141361 -1.23785,-5.35455 -0.27718,-10.862834 0.0889,-16.269607 1.07522,-12.22035 1.67878,-24.477977 3.02935,-36.67512 1.14364,-11.843578 2.35196,-23.766547 1.06336,-35.655807 0,0 -9.90793,5.17865 -9.90793,5.17865 z" />
    <path
       style="fill:#ff0000;stroke-width:1;paint-order:markers stroke fill"
       id="path857"
       d="m 338.95151,-32.169216 c 6.09653,-0.380852 12.1752,-0.991687 18.27932,-1.317551 3.56251,-0.208174 7.13814,-0.381225 10.65869,-1.008332 2.97487,-0.529913 5.9073,-1.369306 8.84597,-2.06578 2.33117,-0.538805 4.65098,-1.143531 7.00445,-1.582099 1.02886,-0.191728 2.16575,-0.440854 3.2213,-0.289007 -0.21539,-0.015 -0.43079,-0.03001 -0.64622,-0.04501 0,0 10.14596,-4.770525 10.14596,-4.770525 v 0 c -0.0611,-0.485069 -0.12216,-0.970135 -0.18326,-1.455203 -0.25503,-0.128096 -0.48349,-0.337939 -0.76512,-0.384284 -0.59653,-0.09818 -2.63088,0.238491 -3.02876,0.31074 -2.39864,0.435565 -4.75708,1.081686 -7.1273,1.642478 -2.95663,0.689361 -5.88716,1.58246 -8.86155,2.185334 -3.51449,0.71234 -7.09885,0.930333 -10.66925,1.150617 -3.6886,0.175557 -7.37166,0.362456 -11.05365,0.648232 -1.75242,0.136014 -3.49935,0.361225 -5.25584,0.426209 -0.49366,0.01826 -0.98754,-0.03022 -1.4813,-0.04533 0,0 -9.08344,6.599513 -9.08344,6.599513 z" />
    <path
       style="fill:#ff0000;stroke-width:1;paint-order:markers stroke fill"
       id="path859"
       d="m 413.1864,-38.606489 c -10.05057,4.862833 -18.42707,10.094164 -25.20855,18.831071 -0.97975,1.262256 -1.8374,2.614717 -2.75608,3.922075 -2.10326,3.252488 -3.74238,6.7782909 -4.7619,10.5189208 -0.35483,1.3018505 -0.8346,3.5115784 -0.65569,4.94694483 0.0835,0.66979559 0.39915,1.28959678 0.59873,1.93439517 2.24377,3.7010391 4.91585,4.3717306 9.02732,4.5022869 2.48166,-0.2452754 4.90323,-0.9032904 7.09099,-2.1271378 7.93821,-4.44067581 10.48396,-5.3024676 15.69537,-10.4281969 3.9337,-4.537633 6.58207,-9.970626 8.52067,-15.611039 1.61724,-4.665982 2.5531,-9.481978 2.97852,-14.388494 0.34978,-0.563922 -0.023,-3.001078 0.29187,-3.647022 0.0511,-0.104902 0.44185,-0.138422 0.34086,-0.07993 -10.03313,5.810475 -11.85117,2.466258 -8.83174,6.659213 0.76229,1.069523 1.49429,2.161313 2.2869,3.208573 2.61834,3.459536 5.38178,6.807022 8.03584,10.239226 4.10015,5.302263 8.0382,10.7131265 11.96475,16.1439859 3.80585,5.1196461 7.66242,10.2203606 12.58261,14.3180381 0.17716,0.196217 0.35433,0.392434 0.53152,0.588652 0,0 9.54183,-5.8431627 9.54183,-5.8431627 v 0 c -0.23358,-0.217098 -0.46715,-0.4341958 -0.70075,-0.6512938 -5.16086,-3.73400568 -9.18914,-8.6736665 -13.10188,-13.6577801 -4.04307,-5.3534934 -8.07794,-10.7137404 -12.10368,-16.0802524 -2.14445,-2.858675 -5.53858,-7.337603 -7.53838,-10.432873 -0.70479,-1.090866 -1.29058,-2.254181 -1.93587,-3.381272 -0.28726,-0.54779 -0.27149,-1.828141 -0.8618,-1.643374 -11.25495,3.522837 -10.01528,2.558362 -10.3382,9.16305 -0.42582,4.793321 -1.33657,9.518645 -2.95095,14.065824 -2.04118,5.5051 -4.65116,10.8579651 -8.74326,15.1531266 -0.70551,0.6434014 -1.38049,1.3219668 -2.11654,1.93020439 -2.68629,2.21985491 -7.97316,5.08620011 4.97181,-2.43278689 0.72086,-0.4187163 -1.4461,0.8363919 -2.20839,1.1738378 -1.85161,0.81963268 -2.57559,0.87954988 -4.51173,1.30342015 -3.40209,0.10702089 -6.27938,-0.26123325 -8.24847,-3.33569825 -0.15676,-0.5304092 -0.40917,-1.0415236 -0.47032,-1.5912274 -0.15206,-1.3667068 0.26845,-3.3421243 0.60783,-4.5847672 0.98697,-3.6135212 2.61022,-6.9952562 4.66455,-10.1208542 0.91884,-1.271139 1.77512,-2.589977 2.75659,-3.813416 1.994,-2.485558 4.44198,-5.032999 6.86961,-7.101244 1.16626,-0.993595 5.15353,-3.102314 3.65392,-2.788436 -2.23893,0.468622 -4.03629,2.154719 -6.02514,3.284747 -0.77994,0.443158 1.59806,-0.815552 2.39707,-1.223328 0,0 8.66016,-6.924003 8.66016,-6.924003 z" />
    <path
       style="fill:#ff0000;stroke-width:1;paint-order:markers stroke fill"
       id="path861"
       d="m -111.59392,74.64644 c 2.5638,10.967087 4.97966,21.957471 7.16493,33.00631 1.28154,6.81417 2.23269,13.68325 3.37642,20.52036 0.26308,1.57267 1.179486,6.90808 1.655077,8.73591 0.248999,0.95697 0.625887,1.87601 0.938831,2.81402 0.479195,0.57136 0.719177,1.51415 1.437582,1.71407 1.08331,0.30146 2.363512,0.15511 3.351797,-0.38129 4.9246,-2.67289 9.648934,-5.74159 14.129121,-9.1067 2.409346,-1.80968 4.338259,-4.1846 6.440564,-6.34335 4.371689,-4.48908 9.437631,-10.1394 13.660971,-14.78491 -3.144482,-5.32946 12.087077,-6.3297 10.488049,-11.183866 -0.642641,-1.950863 -4.055642,1.591396 -5.209913,3.290366 -0.503901,0.7417 1.888503,0.004 2.646307,0.48301 2.22994,1.41052 3.155328,4.67587 4.081158,6.80673 4.27505,14.08796 -1.21349,-4.26707 2.426404,8.71551 0.302617,1.07937 0.506966,2.20804 1.021025,3.2042 0.344939,0.66844 0.788386,1.92318 1.501669,1.68439 11.021568,-3.68982 10.273929,-3.80746 15.111841,-10.00033 1.092534,-1.75203 2.276043,-3.45052 3.277604,-5.2561 6.286121,-11.332439 10.377933,-23.808368 14.5335032,-36.027292 2.9256752,-7.62517 5.515942,-15.441573 8.99126355,-22.847197 0,0 -10.15875975,4.750845 -10.15875975,4.750845 v 0 c -0.420137,2.03141 -1.361905,4.123225 -2.065036,6.039075 -1.993153,5.430832 -4.026192,10.847959 -5.873371,16.331041 -4.059222,12.227962 -8.161335,24.761478 -14.824702,35.876058 -1.084464,1.8089 -2.376083,3.48525 -3.564125,5.22788 -1.118405,1.17678 -4.977596,3.47083 -3.355219,3.53035 2.676039,0.0982 5.164186,-1.75126 7.284988,-3.3862 0.480814,-0.37066 -1.113931,-0.60895 -1.430999,-1.12668 -0.567074,-0.92595 -0.802884,-2.01976 -1.130025,-3.05511 -0.921269,-2.91565 -1.469893,-5.94222 -2.564075,-8.80757 -1.014854,-2.50719 -1.965941,-6.028799 -4.360298,-7.796372 -0.92111,-0.679987 -2.217238,-1.44304 -3.280376,-1.018114 -4.474485,1.788404 -8.55313,4.505996 -12.469619,7.313216 -4.018442,2.8803 -5.850496,8.23592 -9.966695,10.98457 -4.647849,5.12563 -8.846011,9.89449 -13.785737,14.76202 -2.244275,2.21147 -5.351375,3.70082 -6.931159,6.42693 -0.693449,1.19663 2.564418,-1.26286 3.947374,-1.27805 1.292354,-0.0142 -4.689255,2.91516 -3.877292,0.004 -0.341775,-0.8723 -0.74836,-1.72191 -1.025321,-2.61691 -0.584517,-1.88886 -1.625319,-6.82905 -1.960679,-8.50991 -1.352293,-6.77783 -2.39028,-13.61216 -3.627413,-20.41087 -2.15451,-11.138914 -4.514035,-22.251644 -6.180025,-33.475592 0,0 -9.82564,5.191125 -9.82564,5.191125 z" />
    <path
       style="fill:#ff0000;stroke-width:1;paint-order:markers stroke fill"
       id="path863"
       d="m -8.7694705,93.628164 c 1.2869986,8.654256 0.1954373,17.459416 -0.540675,26.119556 -0.2094045,3.3648 -0.5653289,6.68578 -1.2630075,9.98052 0,0 9.79979529,-4.7785 9.79979529,-4.7785 v 0 c 0.4706774,-3.28844 0.70699844,-6.58895 0.87872965,-9.90763 0.62779527,-8.87454 1.59065776,-17.783313 0.98494546,-26.685438 0,0 -9.8597879,5.271492 -9.8597879,5.271492 z" />
    <path
       style="fill:#ff0000;stroke-width:1;paint-order:markers stroke fill"
       id="path865"
       d="m 10.82734,54.402127 c -0.108842,0.302273 -0.217684,0.604549 -0.326526,0.906822 0,0 10.116627,-4.724413 10.116627,-4.724413 v 0 c 0.117869,-0.331719 0.235739,-0.66344 0.353608,-0.995159 0,0 -10.143709,4.81275 -10.143709,4.81275 z" />
    <path
       style="fill:#ff0000;stroke-width:1;paint-order:markers stroke fill"
       id="path867"
       d="m 31.954149,43.813502 c -0.222414,6.737014 -1.763379,13.358812 -3.221855,19.911798 -1.898271,8.528997 -1.377608,6.214396 -3.636677,14.771946 -2.92984,10.949705 -6.227813,21.790794 -9.707495,32.576534 0,0 9.461439,-4.47018 9.461439,-4.47018 v 0 c 3.158537,-10.786258 6.296752,-21.578736 9.275243,-32.416408 3.093419,-11.654486 6.090608,-23.397056 7.814609,-35.343401 0,0 -9.985264,4.969711 -9.985264,4.969711 z" />
    <path
       style="fill:#ff0000;stroke-width:1;paint-order:markers stroke fill"
       id="path869"
       d="m 8.5957975,57.428 c 1.0934232,3.267612 1.1247522,6.743848 1.107022,10.153692 -0.019833,0.19976 -0.24197,0.682961 -0.059498,0.599284 3.4736205,-1.592932 6.9464245,-3.231407 10.1934105,-5.246489 0.326588,-0.202682 0.05578,-0.767324 0.110042,-1.147842 0.25397,-1.780979 0.738179,-3.521112 1.090735,-5.283981 0.321261,-1.939583 0.199979,-1.025199 0.38429,-2.740355 0,0 -9.975348,4.958826 -9.975348,4.958826 v 0 c -0.145599,1.605327 -0.04362,0.741693 -0.330173,2.587924 -0.371604,1.789289 -0.762692,3.57918 -1.1879063,5.3565 -0.087833,0.367128 -0.6527448,1.223399 -0.2987379,1.092345 10.3170072,-3.819321 10.5108122,-1.08349 9.9499672,-5.235056 -0.168973,-3.527864 -0.22741,-7.093868 -1.173765,-10.522188 0,0 -9.8100383,5.42734 -9.8100385,5.42734 z" />
    <path
       style="fill:#ff0000;stroke-width:1;paint-order:markers stroke fill"
       id="path871"
       d="m 44.829378,44.919947 c 0.02606,0.53662 0.104087,1.073235 0.07816,1.60986 -0.237776,4.920697 -1.381313,9.814848 -2.46648,14.596168 -1.218822,5.370213 -1.800638,7.471122 -3.171,12.79203 -2.328714,8.984625 -4.808352,17.928262 -7.440538,26.828035 -1.06902,3.40584 -1.747586,6.91287 -2.556743,10.385 -0.142669,0.34571 -0.285335,0.69142 -0.428003,1.03712 0,0 10.092713,-4.71286 10.092713,-4.71286 v 0 c 0.118899,-0.38503 0.237797,-0.77007 0.356699,-1.1551 0.732977,-3.40423 1.337008,-6.838691 2.293723,-10.191054 2.401144,-8.838726 4.62077,-17.724448 6.892948,-26.59729 1.667685,-6.562264 1.602338,-6.209604 3.187081,-12.832289 1.198147,-5.007088 2.486562,-10.043498 3.089913,-15.168744 0.06591,-0.559906 0.05211,-1.12634 0.07816,-1.689508 0,0 -10.006626,5.098632 -10.006626,5.098632 z" />
    <path
       style="fill:#ff0000;stroke-width:1;paint-order:markers stroke fill"
       id="path873"
       d="m 110.21853,67.678548 c -4.29879,0.899536 -8.59249,1.98248 -12.74782,3.418628 -1.243428,0.429747 -2.529464,0.781309 -3.689244,1.402358 -4.353406,2.331201 -8.542721,4.956659 -12.814083,7.43499 -1.128371,1.105194 -2.369828,2.105676 -3.385113,3.315584 -5.330399,6.352193 -8.535395,15.298388 -11.012104,23.118392 -0.598347,3.10229 -2.579611,7.8326 0.09992,10.6079 1.376926,1.42614 2.655898,1.47681 4.49771,1.97891 3.686874,0.34619 7.18076,-0.37252 10.43577,-2.18643 4.328488,-2.41214 8.624054,-4.89697 12.765399,-7.61791 1.790237,-1.17622 4.952011,-4.62081 6.430245,-6.1533 3.26652,-3.704565 6.38699,-7.585251 8.79203,-11.917475 1.42073,-2.559199 1.53744,-3.084912 2.60217,-5.743708 0.2778,-0.874807 0.57833,-1.74272 0.8334,-2.624423 0.51826,-1.791446 0.65991,-2.561444 0.98109,-4.349797 0.0955,-0.531977 0.11973,-1.079146 0.2657,-1.599549 0.0831,-0.296257 0.6841,-0.972855 0.41434,-0.824858 -3.23936,1.777217 -6.30348,3.856657 -9.45522,5.784985 0.13575,0.574519 0.36067,1.135058 0.40727,1.723554 0.61789,7.803161 -0.31209,15.790873 -1.21401,23.522161 -1.11421,9.55115 -1.5963,11.93604 -3.10752,21.41093 -2.813213,15.42018 -5.664149,30.89752 -10.226362,45.91314 -1.449461,3.44822 -2.684931,7.14724 -5.036719,10.1305 -0.567793,0.72025 -1.207418,1.3957 -1.928434,1.96252 -0.656757,0.51631 -2.861215,1.72361 -2.167792,1.2577 2.32351,-1.56115 4.707485,-3.03038 7.061226,-4.54558 -4.84237,0.95007 -8.907245,-0.73222 -12.784852,-3.49213 -2.391082,-2.17105 -2.227723,-2.64416 -2.162535,-5.7491 0,0 -9.68521,4.94133 -9.68521,4.94133 v 0 c 0.09572,3.4614 -0.05979,4.23893 2.586313,6.68194 4.139723,3.09828 8.157937,4.76145 13.429265,4.31946 3.905391,-2.04112 7.862364,-3.98643 11.716171,-6.12334 0.733824,-0.4069 1.416359,-0.91783 2.024618,-1.49583 3.42506,-3.25468 4.73919,-8.12833 6.392811,-12.37147 4.05912,-14.98129 6.55798,-30.33944 9.29789,-45.60163 1.64212,-10.48711 3.28269,-20.97015 4.41724,-31.527764 0.25211,-2.346071 1.13904,-11.244331 1.07012,-14.427052 -0.0167,-0.771885 -0.30059,-1.514589 -0.45089,-2.271882 -3.43615,1.562442 -6.98294,2.901458 -10.30846,4.687327 -0.14891,0.07997 -0.35498,2.009179 -0.43702,2.497902 -0.3835,2.284706 -0.95684,4.531709 -1.75905,6.707216 -0.37812,0.908397 -0.7161,1.834566 -1.13436,2.725193 -2.524428,5.375423 -6.287311,10.05268 -10.210391,14.46045 -1.02262,1.02439 -1.998109,2.0981 -3.067857,3.07317 -2.359369,2.15057 -8.420758,6.33243 1.993175,0.0185 1.120344,-0.67926 -2.317088,1.24064 -3.544871,1.69794 -1.050568,0.39129 -2.148266,0.67477 -3.257722,0.83574 -0.993111,0.14409 -2.00642,0.0491 -3.00963,0.0736 -1.358157,-0.27635 -2.823197,-0.34264 -3.931426,-1.32213 -2.356201,-2.08249 -0.491288,-7.18498 -0.05327,-9.58898 2.420649,-7.899936 5.478602,-16.393882 11.169096,-22.590122 1.066197,-1.160954 2.356099,-2.094552 3.534148,-3.141829 -1.820465,0.989685 -3.867409,1.645134 -5.461402,2.969059 -0.998974,0.82972 2.397173,-1.00271 3.620056,-1.439688 3.987945,-1.42503 8.146722,-2.514018 12.308914,-3.265447 0,0 8.89727,-6.69966 8.89727,-6.69966 z" />
    <path
       style="fill:#ff0000;stroke-width:1;paint-order:markers stroke fill"
       id="path875"
       d="m 130.0079,81.941471 c -1.03003,5.706908 -1.40577,11.512893 -1.78676,17.292581 -0.16462,1.824518 -0.1844,3.658028 -0.31643,5.484458 -0.0502,0.6947 -0.0186,1.40696 -0.19696,2.08025 -0.13381,0.50507 -0.48179,0.92729 -0.72269,1.39093 0,0 10.03569,-4.6385 10.03569,-4.6385 v 0 c 0.16917,-0.5546 0.41231,-1.09184 0.50752,-1.6638 0.40847,-2.453622 -0.0422,-5.020856 0.31791,-7.479917 0.36657,-5.844461 0.78642,-11.72206 2.21092,-17.422794 0,0 -10.0492,4.956792 -10.0492,4.956792 z" />
    <path
       style="fill:#ff0000;stroke-width:1;paint-order:markers stroke fill"
       id="path877"
       d="m 136.40677,48.522135 c -0.0939,0.316799 -0.11899,0.662858 -0.2818,0.950394 -0.42375,0.748382 -1.38452,1.462969 -1.98828,1.996027 -1.24765,1.101535 -2.41176,2.011426 -3.86598,2.820694 2.93738,-1.746356 5.91668,-3.424049 8.81214,-5.239065 0.10224,-0.06409 -0.26762,0.02014 -0.3568,-0.06117 -0.26355,-0.240228 -0.0905,-0.865976 0.0358,-1.056129 0.12567,-0.189172 0.7372,-0.529201 0.54274,-0.411869 -3.00339,1.812218 -5.98176,3.66559 -8.97264,5.498385 1.01183,-0.508021 2.47057,0.526108 2.63991,1.609207 0.0488,0.311986 -0.0576,0.628922 -0.0863,0.943385 -0.60806,1.261258 -0.53168,1.298384 -1.5808,2.471253 -0.39823,0.445204 -0.81078,0.885923 -1.28552,1.248437 -0.39264,0.299817 -1.71756,0.976772 -1.2945,0.721664 8.99794,-5.425834 7.04876,-2.390079 8.96933,-5.41695 0.0962,-0.267909 0.19248,-0.535818 0.28872,-0.803727 0,0 -10.00889,4.907886 -10.00889,4.907886 v 0 c -0.0173,0.466301 -0.0345,0.932606 -0.0518,1.398907 0.21779,0.403953 0.22315,1.371637 0.65336,1.211861 3.84668,-1.428626 11.6165,-4.33764 13.8296,-9.317215 0.20937,-0.471098 0.26603,-0.996151 0.39905,-1.494226 -0.0401,-0.456414 -0.004,-0.926031 -0.12032,-1.36924 -0.43617,-1.664605 -2.06529,-2.625386 -3.57746,-3.128343 -3.35175,2.012754 -6.80949,3.858728 -10.05526,6.038259 -0.92475,0.620962 0.2584,4.051613 1.06766,3.710514 3.63905,-1.533861 7.0056,-3.647368 10.50841,-5.471051 2.43935,-1.658871 5.10057,-3.636708 5.89719,-6.61189 0,0 -10.11749,4.853998 -10.11749,4.853998 z" />
    <path
       style="fill:#ff0000;stroke-width:1;paint-order:markers stroke fill"
       id="path879"
       d="m 151.10366,74.712684 c 0.37426,4.34608 0.93289,8.669279 1.90959,12.923644 0.87077,2.770658 1.74853,5.556414 2.76957,8.278434 0.79091,2.163429 1.23064,4.421218 1.72759,6.662658 0.57556,2.67494 1.72121,5.08926 3.05629,7.45603 0.76313,0.6606 1.18353,1.39323 2.44352,0.60471 3.7913,-2.37266 7.58132,-4.80331 10.98438,-7.70549 0.91733,-0.78231 1.21492,-2.08451 1.75764,-3.161056 1.27821,-2.535491 2.42754,-5.398185 3.52552,-8.007053 2.87458,-6.962408 6.28244,-13.701176 8.82197,-20.797912 0.76043,-2.481035 1.75878,-4.874572 2.68242,-7.295647 0,0 -10.0917,4.714425 -10.0917,4.714425 v 0 c -0.78896,2.396323 -1.66052,4.765069 -2.41951,7.171656 -2.5015,7.01689 -5.70354,13.75356 -8.58925,20.616142 -1.21282,2.766708 -2.24149,5.307615 -3.72131,7.942355 -0.59928,1.06697 -3.18913,3.18955 -1.96875,3.09872 2.81052,-0.20917 5.03078,-2.57766 7.68537,-3.52419 0.42463,-0.15141 -0.4213,0.86435 -0.81934,1.07601 -0.2142,0.11389 -0.44673,-0.18936 -0.67009,-0.28404 -1.31428,-2.24866 -2.31691,-4.609501 -2.88384,-7.160791 -0.48724,-2.302502 -0.93633,-4.619291 -1.78064,-6.826435 -1.03587,-2.653448 -1.94415,-5.365758 -2.84816,-8.063957 -1.0074,-4.239689 -1.60727,-8.54827 -1.65037,-12.912236 0,0 -9.9209,5.194023 -9.9209,5.194023 z" />
    <path
       style="fill:#ff0000;stroke-width:1;paint-order:markers stroke fill"
       id="path881"
       d="m 196.58413,83.390514 c 6.25388,-0.0059 12.47446,-0.428334 18.6727,-1.238731 3.41556,-0.462524 6.88425,-0.996503 10.09964,-2.300957 4.44418,-1.802969 8.32095,-4.772806 12.43304,-7.241035 1.76265,-2.138839 2.38932,-4.959818 0.94314,-7.465242 -0.29992,-0.519602 -0.7174,-0.961816 -1.07611,-1.442723 -2.99427,-3.141107 -7.07196,-4.11983 -11.23316,-4.585409 -2.58886,-0.04062 -4.97104,0.737624 -7.18684,2.058731 -10.21869,6.092581 -10.53406,5.491911 -16.48993,12.230015 -4.07621,4.710245 -6.91791,10.108679 -8.48868,16.134183 -0.29439,1.129284 -0.4872,2.28264 -0.7308,3.42396 -0.63573,5.351676 -0.0393,9.485024 4.31263,13.149684 0.75561,0.63628 1.63789,1.10479 2.45683,1.65719 3.60185,1.82156 7.58944,2.80925 11.61111,3.11013 2.64262,0.19771 4.08218,0.0229 6.74329,-0.13085 5.95189,-0.51473 11.50528,-2.6554 16.70223,-5.49902 3.59637,-2.18845 7.19275,-4.37689 10.78913,-6.565337 0,0 -10.24856,4.086557 -10.24856,4.086557 v 0 c 2.65494,-1.46881 5.30987,-2.937623 7.96481,-4.406439 -5.07654,3.061259 -10.6345,5.294869 -16.55415,6.011409 -2.46631,0.17671 -4.09747,0.37474 -6.55451,0.24353 -3.89445,-0.20797 -7.78081,-1.07236 -11.32249,-2.70808 -0.77184,-0.48736 -1.60262,-0.89195 -2.31551,-1.46207 -4.0498,-3.23875 -4.53113,-7.328124 -3.9084,-12.160281 0.24196,-1.104354 0.42841,-2.222351 0.7259,-3.313059 1.61465,-5.919952 4.66983,-11.141662 8.71698,-15.72823 0.79302,-0.8504 1.54898,-1.736934 2.37906,-2.5512 0.80249,-0.787204 3.58997,-2.572589 2.51363,-2.248289 -2.43623,0.734039 -4.48692,2.402681 -6.76792,3.530105 -0.8182,0.404411 1.55135,-0.969878 2.37663,-1.359627 0.72714,-0.3434 1.48628,-0.629134 2.26438,-0.832149 0.67559,-0.176266 1.38205,-0.199689 2.07307,-0.299535 3.88362,0.266433 7.79744,1.009295 10.66495,3.856072 0.30326,0.401026 0.66328,0.764868 0.90976,1.203081 1.24434,2.212314 0.18082,4.585883 -1.54734,6.140469 2.70548,-1.502659 5.41227,-3.002965 8.11645,-4.507971 0.53946,-0.300233 -1.06439,0.629224 -1.62228,0.893643 -3.18632,1.510224 -6.71074,2.157585 -10.17025,2.662002 -2.36512,0.349229 -5.15997,0.805257 -7.53689,0.972133 -3.53981,0.248517 -7.10986,0.157003 -10.65434,0.09999 0,0 -9.0612,6.583352 -9.0612,6.583352 z" />
    <path
       style="fill:#ff0000;stroke-width:1;paint-order:markers stroke fill"
       id="path883"
       d="m 262.43834,70.147618 c 2.2024,7.782573 3.8388,15.708096 5.55428,23.607562 1.00952,4.651983 2.69097,9.09945 4.14938,13.61525 0.77436,3.00993 0.90641,6.13608 0.93826,9.2298 -0.39732,4.24219 -0.44561,3.58694 10.08052,-5.80957 0.79016,-0.70536 0.21524,-2.10846 0.38016,-3.15472 0.25807,-1.63727 0.54927,-3.27002 0.8882,-4.89248 1.11533,-5.33902 1.61827,-6.808304 3.09806,-12.149024 2.75622,-8.541835 5.24725,-17.405615 10.03372,-25.097917 0.60859,-0.978067 1.32794,-1.882691 1.99194,-2.824036 0.69815,-0.67518 1.33601,-1.418876 2.09447,-2.025533 0.6686,-0.534776 2.90094,-1.819471 2.16521,-1.381612 -2.44115,1.452851 -4.94612,2.810713 -7.28225,4.427024 -0.53375,0.369279 1.2112,-0.470691 1.83298,-0.656804 1.42139,-0.425461 1.7644,-0.408009 3.17031,-0.571561 1.3253,-0.02432 0.74819,-0.04873 1.73268,0.02569 0,0 9.14167,-6.50879 9.14167,-6.50879 v 0 c -1.15014,-0.13013 -0.49424,-0.08018 -1.97067,-0.10364 -6.65049,0.388406 -10.47702,3.670266 -16.76492,7.382058 -0.73414,0.433358 -1.40867,0.971687 -2.03076,1.554543 -0.70654,0.661964 -1.29188,1.442442 -1.93781,2.163662 -0.61113,0.956347 -1.27119,1.883135 -1.8334,2.869041 -4.45858,7.818869 -6.87769,16.615508 -9.56863,25.136118 -1.66159,5.897721 -1.88545,6.465021 -3.29031,12.322871 -0.40357,1.68288 -0.77779,3.37277 -1.14414,5.06415 -0.24299,1.12186 -1.82964,3.44153 -0.68371,3.37505 10.76603,-0.62452 10.6666,-0.56623 9.80197,-4.2335 -0.18174,-3.1816 -0.31454,-6.39861 -1.14361,-9.49278 -1.58885,-4.40151 -3.31861,-8.755228 -4.50204,-13.293671 -1.90844,-7.946856 -3.64141,-15.937661 -5.10649,-23.978732 0,0 -9.79507,5.401548 -9.79507,5.401548 z" />
    <path
       style="fill:#ff0000;stroke-width:1;paint-order:markers stroke fill"
       id="path885"
       d="m 329.3116,62.139647 c 0.98746,5.149368 0.89289,10.408504 0.79082,15.624939 -0.2127,3.840893 0.0715,7.682582 0.2423,11.518826 0.16129,3.917696 0.11608,7.840067 0.3133,11.755598 0.062,2.41119 0.41727,4.8222 0.26278,7.23357 0,0 9.94315,-5.0686 9.94315,-5.0686 v 0 c -0.16037,-2.38976 -0.40069,-4.774285 -0.48506,-7.169193 -0.13002,-3.936346 -0.0238,-7.875611 -0.20939,-11.810581 -0.15688,-3.790083 -0.51803,-7.575246 -0.39598,-11.372456 0.0257,-5.337294 0.0629,-10.686658 -0.58624,-15.994967 0,0 -9.87568,5.282864 -9.87568,5.282864 z" />
    <path
       style="fill:#ff0000;stroke-width:1;paint-order:markers stroke fill"
       id="path887"
       d="m 318.93838,42.680905 c 1.34154,1.551189 1.6366,4.710996 2.8707,6.186774 0.18344,0.219352 0.45937,0.340624 0.68905,0.510936 4.91713,-0.330885 1.29456,0.05816 11.26752,-6.397894 0.37711,-0.244126 1.29815,-1.383332 1.42042,-1.884265 0.0405,-0.166145 -0.0183,-0.341548 -0.0275,-0.512323 0,0 -10.14765,4.941321 -10.14765,4.941321 v 0 c -0.33716,0.215212 -0.61674,0.706218 -0.87868,0.983967 -0.22315,0.236609 -0.9816,0.837221 -0.69342,0.686443 8.61804,-4.509101 10.62051,-7.704786 8.29948,-4.245459 -0.40246,0.494567 -0.25466,0.517429 -0.73245,-0.402664 -0.93731,-1.805001 -1.41877,-3.824029 -2.43276,-5.594258 0,0 -9.63467,5.727422 -9.63467,5.727422 z" />
    <path
       style="fill:#ff0000;stroke-width:1;paint-order:markers stroke fill"
       id="path889"
       d="m 385.40671,43.812364 c -2.89462,0.898769 -5.92759,1.436984 -8.72884,2.625408 -5.21251,2.211384 -9.82102,5.639874 -14.67123,8.561464 -3.39135,2.639184 -8.27423,6.7296 -8.54315,11.430751 -0.049,0.856107 0.22717,1.699903 0.34075,2.549853 0.45514,0.770829 0.82206,1.601084 1.36541,2.312485 1.76067,2.305256 4.28122,3.734691 6.67216,5.267013 2.47031,1.583179 1.58321,0.973084 3.7965,2.682216 1.34499,1.274738 2.94397,2.745822 2.92981,4.790281 -0.0228,3.306884 -2.22871,6.674993 -3.65384,9.481799 -2.56074,4.228351 -5.02338,8.673016 -8.46966,12.272866 -0.51032,0.53306 -1.09542,0.98915 -1.64314,1.48372 0,0 10.13667,-4.18159 10.13667,-4.18159 v 0 c 3.92205,-4.109962 6.86533,-9.00936 9.63834,-13.942185 1.56827,-3.126306 3.84689,-6.678181 3.66025,-10.358652 -0.11475,-2.262624 -1.82438,-3.941238 -3.33536,-5.387062 -0.60913,-0.470024 -1.1956,-0.970962 -1.8274,-1.41007 -3.46985,-2.411693 -7.70171,-3.991274 -9.58527,-8.080743 -0.0605,-0.720307 -0.27139,-1.443699 -0.18143,-2.160921 0.55388,-4.416234 5.47042,-8.228068 8.73019,-10.683224 -2.17201,1.172224 -4.32982,2.371215 -6.5161,3.516673 -0.88069,0.461428 1.69823,-1.04262 2.59868,-1.464207 2.18895,-1.024848 4.67659,-1.598311 7.01556,-2.177886 0.45434,-0.112586 0.9175,-0.186251 1.37623,-0.279379 0,0 8.89487,-6.84861 8.89487,-6.84861 z" />
    <path
       style="fill:#ff0000;stroke-width:1;paint-order:markers stroke fill"
       id="path891"
       d="m 397.10989,76.860907 c 3.82506,-0.125614 7.68361,-0.142243 11.46723,-0.79734 2.88708,-0.499872 3.50914,-0.802804 6.25329,-1.684933 5.88936,-2.773696 12.12739,-5.5421 16.67457,-10.297724 1.87905,-1.965208 3.28097,-4.253327 4.61696,-6.597507 1.11731,-2.313469 2.18302,-5.666835 -0.15915,-7.655128 -0.37973,-0.322355 -0.85143,-0.517189 -1.27714,-0.775785 -3.90478,-1.341647 -7.8081,-0.477761 -11.52306,0.986647 -5.06082,2.707196 -6.66064,3.511312 -13.43699,8.071197 -0.74854,0.50369 -1.28667,1.267722 -1.87773,1.949383 -1.95593,2.255833 -3.4994,4.730203 -4.97117,7.312943 -1.91588,4.366091 -3.59233,8.861843 -4.65413,13.518851 -0.6042,2.650043 -0.7765,4.163267 -1.1707,6.830759 -0.23818,3.897415 -0.94229,8.962607 1.4106,12.42613 0.34478,0.50752 0.81129,0.92068 1.21692,1.38102 3.12415,2.5253 7.16487,3.47801 11.0163,4.31867 4.59309,1.11541 9.26965,1.40232 13.9755,1.24824 5.6052,-0.4932 11.09065,-1.89617 16.45695,-3.53927 5.7218,-2.1765 11.77674,-3.47813 17.33754,-6.060519 3.51756,-2.144183 7.03509,-4.288369 10.55264,-6.432555 0,0 -10.2829,4.144643 -10.2829,4.144643 v 0 c 2.76323,-1.521826 5.52646,-3.043653 8.28969,-4.565478 -0.65079,0.355957 -1.27712,0.760872 -1.95236,1.067876 -4.86637,2.212441 -10.44273,3.188237 -15.4001,5.234713 -5.28362,1.675569 -10.67549,3.050402 -16.19168,3.69007 -4.63269,0.26004 -9.24703,0.0496 -13.77556,-1.053005 -1.99649,-0.402114 -3.86974,-0.909873 -5.80511,-1.536655 -1.70299,-0.551529 -3.39649,-1.029269 -4.77687,-2.246096 -0.36049,-0.377613 -0.7752,-0.710065 -1.08151,-1.132834 -2.30166,-3.176919 -1.5466,-8.078428 -1.33046,-11.688294 1.04024,-6.937023 2.78098,-13.737413 6.04946,-19.995796 1.53138,-2.506874 3.0983,-4.94013 5.1394,-7.076715 0.61471,-0.643482 2.78307,-2.146101 1.95641,-1.8166 -2.40361,0.958059 -11.16274,6.283796 -5.29836,2.746071 3.56208,-1.634032 6.90028,-2.558899 10.82826,-1.699615 0.3498,0.154739 0.72932,0.254799 1.04939,0.464217 2.12767,1.392158 0.48355,4.692142 -0.29115,6.317737 -1.35922,2.258369 -2.76815,4.405061 -4.68733,6.245516 -0.68355,0.6555 -3.05644,2.177132 -2.17705,1.825561 1.4383,-0.575021 11.61825,-6.319575 4.07178,-2.239393 -2.58556,0.927512 -3.41267,1.332087 -6.14399,1.867069 -3.63167,0.711338 -7.37831,0.775703 -11.06324,0.679521 0,0 -9.03515,6.564408 -9.03515,6.564408 z" />
    <path
       style="fill:#ff0000;stroke-width:1;paint-order:markers stroke fill"
       id="path893"
       d="m 26.472462,183.97044 c 3.368132,11.31205 5.390406,23.00089 7.340777,34.62833 1.74095,9.8714 2.161109,19.87721 2.755924,29.85768 0.312428,4.72836 1.521317,9.27526 2.66414,13.84404 0.609401,1.87118 0.9595,3.80681 1.395412,5.72129 0,0 9.770882,-5.26086 9.770882,-5.26086 v 0 c -0.448283,-1.91781 -0.814003,-3.85824 -1.452319,-5.72643 -1.211371,-4.45865 -2.500127,-8.89042 -2.820492,-13.53398 -0.826225,-9.91521 -1.616652,-19.845 -3.371451,-29.65158 -2.070026,-11.73589 -4.322577,-23.44075 -6.434849,-35.16835 0,0 -9.848024,5.28986 -9.848024,5.28986 z" />
    <path
       style="fill:#ff0000;stroke-width:1;paint-order:markers stroke fill"
       id="path895"
       d="m 9.1426288,243.43808 c 8.8980642,-1.36451 17.7116402,-3.38523 26.1813832,-6.46585 2.08324,-0.75772 4.123225,-1.62944 6.184837,-2.44417 13.15103,-5.36053 25.368149,-12.67872 37.61864,-19.78587 -2.104302,1.22389 -4.208608,2.44777 -6.31291,3.67166 0,0 8.375324,-6.77776 8.375324,-6.77776 v 0 c -4.002667,2.31181 -8.005334,4.62361 -12.008001,6.93542 1.886278,-1.0698 3.769966,-2.14419 5.658832,-3.20941 1.373899,-0.77481 -2.735162,1.57203 -4.113922,2.33816 -6.896367,3.83208 -13.910204,7.50138 -21.202872,10.52538 -2.048565,0.82811 -4.075504,1.71188 -6.145691,2.48434 -8.112606,3.02713 -16.615732,5.1945 -25.245416,6.0097 0,0 -8.9902042,6.7184 -8.9902042,6.7184 z" />
    <path
       style="fill:#ff0000;stroke-width:1;paint-order:markers stroke fill"
       id="path897"
       d="m 149.13985,243.83634 c -2.89281,-3.83941 -5.98462,-7.9648 -6.95619,-12.78675 -0.21572,-1.07068 -0.24715,-2.17035 -0.37072,-3.25553 0.17034,-2.7375 0.094,-4.29729 0.97139,-6.95127 1.12202,-3.39399 3.30478,-6.68544 5.88939,-9.13778 0.9508,-0.90214 2.03876,-1.64772 3.05814,-2.47158 1.26771,-0.71287 4.79063,-3.20638 3.80314,-2.13861 -1.29851,1.40405 -4.23858,1.34911 -4.77159,3.18578 -0.43556,1.50089 2.88954,-1.19315 4.35269,-1.7423 3.35849,-1.26053 6.76897,-2.24406 10.23888,-3.13359 3.37014,-0.71038 7.1967,-1.60481 10.35626,0.30681 0.53341,0.32272 0.98311,0.76692 1.47467,1.15038 2.33709,2.48774 3.98682,5.6769 4.00081,9.1633 0.003,0.80826 -0.14748,1.60978 -0.22122,2.41468 -0.2655,0.84005 -0.46717,1.70302 -0.7965,2.52017 -1.33811,3.32012 -4.04677,7.50249 -6.39359,10.19171 -0.72448,0.83018 -1.54138,1.57494 -2.31207,2.36242 -2.96396,2.78251 -6.15918,5.29707 -9.57701,7.49801 -0.69114,0.44507 -2.814,1.70093 -2.10603,1.28315 2.46431,-1.45422 4.9168,-2.92836 7.37519,-4.39255 -2.79565,1.36458 -5.81508,1.93684 -8.89082,2.14456 -1.52982,0.0422 -3.28653,0.2164 -4.57912,-0.74747 0,0 -9.51579,5.91974 -9.51579,5.91974 v 0 c 0.23529,0.22489 0.43128,0.49989 0.70585,0.67466 1.26179,0.80315 2.99994,0.74105 4.41938,0.74817 3.19382,-0.14912 6.34988,-0.5977 9.3081,-1.89307 8.37983,-4.72442 16.05317,-8.54526 22.79378,-15.37964 0.76516,-0.82911 1.57473,-1.61933 2.29548,-2.48733 2.41259,-2.90547 5.02835,-7.0107 6.29563,-10.58067 0.31599,-0.89015 0.48704,-1.82527 0.73056,-2.7379 0.0548,-0.87568 0.18892,-1.74999 0.16424,-2.62703 -0.10567,-3.75636 -1.92081,-7.18396 -4.38088,-9.92024 -1.30334,-1.08635 -1.88596,-1.74685 -3.50798,-2.3818 -2.89511,-1.13329 -6.135,-0.38276 -9.04769,0.19134 -3.57253,0.92182 -7.07955,1.93951 -10.54869,3.20815 -1.47478,0.53932 -2.99052,0.99347 -4.39531,1.69517 -4.51572,2.25559 -8.92541,4.71885 -13.34124,7.16422 -1.30168,0.72084 -2.53764,1.55448 -3.80646,2.33172 -1.013,0.88527 -2.10017,1.69223 -3.03901,2.65579 -4.61953,4.74119 -6.52169,10.39301 -6.52991,16.91219 0.14522,1.14446 0.19439,2.30526 0.43565,3.43339 1.06063,4.95942 4.24948,9.12069 6.89629,13.32163 0,0 9.5223,-5.71203 9.5223,-5.71203 z" />
    <path
       style="fill:#ff0000;stroke-width:1;paint-order:markers stroke fill"
       id="path899"
       d="m 280.62653,233.5536 c -4.35367,-10.10238 -6.40549,-21.00687 -8.11385,-31.81634 -0.51557,-5.66233 -1.24711,-11.4733 -0.05,-17.10843 0.47884,-2.25392 0.88596,-2.9887 1.73628,-5.03365 0.83708,-1.72586 1.83938,-3.32691 3.28056,-4.61115 0.87911,-0.7834 3.9582,-2.55272 2.97752,-1.90091 -2.27386,1.51135 -4.6146,2.91956 -6.9219,4.37934 6.68994,-2.70809 13.85816,-3.55266 20.98977,-4.13697 5.98524,-0.19065 12.02158,-0.28692 17.96571,0.53041 5.12355,1.06359 8.85063,4.5761 11.47977,8.98999 0.80401,1.34982 1.4334,2.79628 2.15011,4.19441 2.75518,7.14125 5.32296,14.83574 4.62076,22.61464 -0.11541,1.27854 -0.42241,2.53249 -0.6336,3.79874 -1.48227,6.65066 -5.57032,11.81239 -10.60608,16.17814 -0.73727,0.49575 -2.98596,1.92315 -2.21179,1.48725 2.31889,-1.30573 4.69331,-2.54149 6.85088,-4.09942 0.82127,-0.59302 -1.85327,0.82149 -2.80222,1.17594 -1.20034,0.44836 -2.4198,0.84485 -3.64157,1.231 -3.97092,1.25505 -4.19283,1.23007 -8.32834,2.22667 -6.28859,1.37557 -12.68974,2.11482 -19.10967,2.47974 -2.89385,0.0909 -6.18416,0.46569 -8.524,-1.55376 -0.12517,-0.23069 -0.25035,-0.46138 -0.37555,-0.69208 0,0 -9.68078,5.58005 -9.68078,5.58005 v 0 c 0.19121,0.32639 0.3824,0.65278 0.57359,0.97918 0.29932,0.28764 0.56104,0.62036 0.89791,0.86292 2.34617,1.68919 5.57035,1.36846 8.27598,1.3194 6.56154,-0.38548 13.08947,-1.2656 19.53247,-2.5669 10.89401,-2.43611 19.42058,-5.14001 28.60276,-12.53635 5.03499,-4.72525 8.72876,-9.85447 10.12256,-16.77214 0.17613,-1.30596 0.44844,-2.60253 0.52842,-3.91788 0.48218,-7.92999 -2.22141,-15.69421 -4.95326,-22.99713 -0.7071,-1.45713 -1.33064,-2.95784 -2.12127,-4.3714 -2.63615,-4.71321 -6.37098,-8.56543 -11.72766,-9.88998 -6.04523,-0.9864 -12.20184,-0.67265 -18.30509,-0.58552 -7.11068,0.50184 -14.28507,1.22351 -21.00765,3.75834 -3.96862,2.09628 -7.96309,4.14437 -11.90588,6.28885 -2.86441,1.55794 -4.66836,4.1984 -5.8914,7.1525 -0.74841,2.13134 -1.10685,2.87954 -1.48824,5.20156 -0.93714,5.70566 -0.0451,11.48856 0.60345,17.16754 1.85555,10.94875 4.10694,21.84749 7.53475,32.42708 0,0 9.67653,-5.43368 9.67653,-5.43368 z" />
    <path
       style="fill:#ff0000;stroke-width:1;paint-order:markers stroke fill"
       id="path901"
       d="m 348.44445,215.85727 c 1.99427,-7.87769 7.12567,-14.42623 12.0728,-20.6811 3.13134,-3.97713 6.90414,-7.33867 11.19574,-10.01442 0.75324,-0.46965 3.07858,-1.7681 2.32164,-1.30445 -2.45198,1.50187 -4.93856,2.94653 -7.40783,4.4198 4.40216,-1.74862 6.89229,-0.49379 10.25437,2.46202 2.43631,2.42439 4.87186,5.05305 5.77067,8.47343 0.18722,0.71248 0.25609,1.45092 0.38412,2.17637 0.81257,6.26807 -1.53439,9.80956 -5.44771,14.44121 -0.76775,0.76418 -1.51056,1.55423 -2.3032,2.29254 -1.36819,1.27439 -3.20927,2.80054 -4.76377,3.85 -0.79658,0.53777 -3.29737,1.97658 -2.47081,1.48616 7.72183,-4.58163 9.23988,-5.15029 4.57575,-3.0721 -3.97729,1.48612 -8.17824,1.62436 -12.30362,0.79835 -3.1545,-0.66117 -5.77538,-2.30311 -8.25,-4.28053 -0.81815,-0.66688 -1.48135,-1.45513 -2.11304,-2.29166 0,0 -9.59221,5.67867 -9.59221,5.67867 v 0 c 0.67199,0.93995 1.38094,1.79995 2.28759,2.53191 2.6031,2.06315 5.33844,3.83818 8.6183,4.63452 4.27447,1.06677 8.56591,0.98491 12.79784,-0.31 6.30724,-2.5996 2.72013,-1.00697 14.08853,-7.61214 3.55664,-2.06645 6.58731,-4.91221 9.34575,-7.93159 0.67913,-0.86198 1.41338,-1.68327 2.03742,-2.58593 2.75053,-3.97843 3.90298,-7.97553 3.15212,-12.7698 -0.14502,-0.79002 -0.22448,-1.59495 -0.43508,-2.37007 -0.97402,-3.58469 -3.54063,-6.32805 -6.06235,-8.91064 -3.40386,-3.18191 -6.2376,-5.02422 -11.00175,-3.5312 -4.53001,2.53223 -9.2258,4.80093 -13.53984,7.68577 -4.14535,2.77204 -7.7435,6.21084 -10.76536,10.17934 -5.0736,6.56297 -10.06713,13.36025 -12.5853,21.37461 0,0 10.13923,-4.81907 10.13923,-4.81907 z" />
    <path
       style="fill:#ff0000;stroke-width:1;paint-order:markers stroke fill"
       id="path903"
       d="m 341.44198,196.3658 c -4.22095,-6.51398 -6.97809,-13.82141 -10.17143,-20.86303 -2.97521,-6.6633 -5.30108,-13.59432 -7.64958,-20.49761 -1.76106,-5.06726 -2.4175,-10.35112 -3.0271,-15.64658 -0.43502,-3.62082 -0.70966,-7.25662 -0.81057,-10.90147 -0.0651,-3.28368 -0.0948,-6.56804 -0.0824,-9.85232 0.0111,-2.84191 0.062,-5.68342 0.0484,-8.52539 -0.019,-1.92553 -0.0132,-3.85127 -0.003,-5.77684 0,0 -9.89261,5.04039 -9.89261,5.04039 v 0 c 0.01,1.92692 0.0148,3.85401 -0.006,5.78088 -0.0175,2.82891 0.0238,5.65757 0.0277,8.48649 0.007,3.30588 -0.0618,6.61319 0.0472,9.91794 0.17259,3.64463 0.50398,7.27425 1.03476,10.88594 0.66534,5.35989 1.29704,10.72135 3.16333,15.83459 2.39231,6.90156 5.05219,13.72422 8.03103,20.39329 3.11782,7.10517 5.90579,14.36741 9.58109,21.21315 0,0 9.70952,-5.48943 9.70952,-5.48943 z" />
    <path
       style="fill:#ff0000;stroke-width:1;paint-order:markers stroke fill"
       id="path905"
       d="m 409.31396,187.61203 c 0.0579,0.43444 0.1684,0.86507 0.1737,1.30332 0.009,0.72251 -0.33547,4.36731 -0.37793,4.80058 -0.26546,2.70946 -0.59307,5.41289 -0.88353,8.11974 -0.20468,4.28082 -1.35273,8.37094 -2.56222,12.45003 -1.2664,3.11753 -1.30017,6.73871 -3.07875,9.63742 3.09232,-1.87708 6.24266,-3.66171 9.27696,-5.63123 0.19931,-0.12938 0.30554,-0.38655 0.35287,-0.61942 0.19114,-0.94044 0.21489,-1.90761 0.35372,-2.85718 0.73753,-5.04511 1.85563,-9.9882 2.98746,-14.95611 1.7027,-7.81197 3.37852,-15.70424 6.85314,-22.94924 0.88299,-1.66328 1.91913,-3.32555 3.46088,-4.46786 0.35793,-0.26519 1.54337,-0.89038 1.16049,-0.66272 -8.66265,5.15078 -11.59087,5.97009 -7.4241,4.68031 3.09409,-0.40303 4.43251,2.42482 5.6167,4.79276 1.84727,3.8601 2.35699,8.11927 2.70399,12.33228 0.28287,3.48263 0.22516,6.96231 -0.0251,10.44164 -0.75732,6.17135 -3.71354,9.12669 9.10172,-2.0404 0.69037,-0.6016 0.23053,-1.81761 0.3893,-2.71947 0.21117,-1.19945 0.48006,-2.38801 0.72009,-3.58202 1.99308,-7.94089 4.75578,-15.8233 8.875,-22.92533 1.16986,-1.50791 1.60152,-2.33853 3.17844,-3.39064 0.57248,-0.38196 2.4171,-1.30767 1.84793,-0.92081 -9.4202,6.40274 -9.32929,4.58291 -3.17675,3.94835 2.49307,-0.0355 5.44293,0.45136 6.92005,2.72786 0.25908,0.39927 0.41627,0.85608 0.62442,1.28411 1.44475,4.68771 0.78234,9.68645 0.23674,14.4701 -0.73239,5.07908 -1.94757,10.07758 -3.45469,14.97889 -1.0038,3.75036 -1.97252,7.50586 -2.66943,11.3269 -0.2554,1.58041 -0.43942,3.17019 -0.56012,4.76623 -0.0739,0.97738 0.0246,1.44733 -0.42008,2.31514 -0.12539,0.24477 -0.34137,0.43127 -0.51205,0.64691 -0.21662,0.0764 -0.43323,0.15284 -0.64984,0.22925 0,0 10.41728,-4.16636 10.41728,-4.16636 v 0 c 0.14877,-0.20895 0.29757,-0.4179 0.44638,-0.62685 0.99467,-2.53774 0.56075,-5.35352 1.18747,-7.98979 0.69149,-3.78088 1.71437,-7.4852 2.67597,-11.20395 1.37189,-4.96446 2.60131,-9.98565 3.26824,-15.09922 0.53636,-4.99151 1.17589,-10.2398 -0.34028,-15.11569 -0.24836,-0.5073 -0.44201,-1.04527 -0.74509,-1.5219 -1.62417,-2.55404 -4.73025,-3.47589 -7.59175,-3.54515 -7.0667,0.3832 -7.05982,1.75722 -15.90939,6.51168 -2.05965,1.10655 -3.47501,2.80755 -4.65122,4.79541 -3.83532,7.30684 -6.46033,15.22033 -8.62973,23.16251 -0.27278,1.22984 -0.57068,2.45438 -0.81838,3.68953 -0.20402,1.0174 -1.5716,3.13764 -0.53639,3.06641 10.40112,-0.71559 9.94841,-1.97525 10.64416,-8.01089 0.25323,-3.52997 0.2349,-7.06533 -0.0821,-10.59344 -0.46934,-4.3232 -1.03325,-8.70336 -2.89637,-12.68448 -1.34813,-2.74799 -2.84554,-5.88365 -6.29607,-6.07059 -5.19354,0.48461 -1.34065,-0.0398 -11.80505,6.10129 -2.03647,1.19512 -3.12028,3.61734 -4.17026,5.59044 -3.12282,7.3362 -4.66746,15.17574 -6.33621,22.94228 -0.82529,3.61233 -1.6051,6.96346 -2.37657,10.58694 -0.0474,0.22288 -1.4455,6.75931 -1.45613,7.7822 -0.008,0.77299 -0.28009,2.51583 0.45421,2.27419 3.635,-1.19618 6.64257,-3.80166 9.96386,-5.7025 1.24211,-3.14415 1.67087,-6.54049 2.80104,-9.7255 1.19039,-4.13054 2.31841,-8.27705 2.42668,-12.60786 0.25466,-2.70188 0.53477,-5.39916 0.83836,-8.09604 0.13642,-1.212 0.47439,-3.80127 0.47984,-5.11561 0.003,-0.51203 -0.0965,-1.01952 -0.14475,-1.52928 0,0 -9.85671,5.37283 -9.85671,5.37283 z" />
    <path
       style="fill:#ff0000;stroke-width:1;paint-order:markers stroke fill"
       id="path907"
       d="m 497.78411,124.43237 c 2.33045,5.99052 3.77545,12.29443 5.08215,18.5745 1.79752,9.6596 2.19755,19.48564 2.12018,29.28669 -0.28995,5.39484 -0.59248,10.94463 -2.26996,16.12049 -0.86511,2.61589 -1.84669,5.19274 -2.3793,7.902 -0.17777,1.0327 -0.56882,1.98128 -1.00875,2.92221 0,0 10.14206,-4.6738 10.14206,-4.6738 v 0 c 0.37328,-1.01112 0.70925,-2.02961 0.89334,-3.09604 0.60392,-2.6435 1.54702,-5.1862 2.31857,-7.7833 1.35348,-5.27217 1.64743,-10.76251 1.70744,-16.18557 -0.12417,-9.86113 -0.43418,-19.75679 -2.18789,-29.48729 -1.27013,-6.42235 -2.72677,-12.81495 -4.67209,-19.07048 0,0 -9.74575,5.49059 -9.74575,5.49059 z" />
    <path
       style="fill:#ff0000;stroke-width:1;paint-order:markers stroke fill"
       id="path909"
       d="m 501.87203,226.6655 c 2.38316,-4.158 4.23434,-8.12043 8.24034,-10.95991 -2.91335,1.77177 -5.86459,3.48268 -8.74006,5.31532 -0.0759,0.0484 0.005,0.18342 -0.0222,0.26918 -0.12586,0.39396 -0.24667,0.79376 -0.43506,1.16193 -0.32258,0.63037 -0.69794,1.23383 -1.09193,1.82222 -1.17084,1.74864 -2.12204,2.85268 -3.44665,4.4967 -1.44772,1.59272 -2.08727,2.42727 -3.74303,3.76172 -0.55216,0.44502 -2.36043,1.57009 -1.74694,1.21431 2.67586,-1.61886 5.3517,-3.23773 8.02756,-4.8566 -0.31803,0.0557 -0.63135,0.17514 -0.95414,0.16722 -0.19174,-0.005 -0.35872,-0.13589 -0.53811,-0.20384 0.0514,-0.15567 0.0771,-0.32237 0.15426,-0.46703 0.679,-1.27319 1.64065,-2.19293 2.84427,-2.97262 0.45235,-0.29303 1.86589,-1.07978 1.40454,-0.80109 -2.68973,1.62477 -5.39338,3.2264 -8.09006,4.8396 0.92175,-0.27443 2.08992,-0.44428 0.39835,-0.3697 0,0 10.43491,-4.22149 10.43491,-4.22149 v 0 c 0.71821,-1.75464 -0.3714,-2.70887 -2.1395,-2.271 -3.63728,2.00952 -7.29965,3.9743 -10.91182,6.02857 -1.67566,0.95294 -3.80362,2.83144 -3.84865,4.95118 -0.01,0.46494 0.23376,0.90025 0.35065,1.35037 0.31136,0.23515 0.56909,0.56751 0.93406,0.70546 0.39817,0.15051 0.88818,0.31484 1.27058,0.12787 3.72515,-1.82129 7.29155,-3.9545 10.8635,-6.06043 2.11738,-1.24835 3.60992,-3.43705 5.2528,-5.18404 1.62314,-2.07803 3.71618,-4.30494 4.55142,-6.87308 0.44045,-1.35421 0.19719,-3.50431 -0.51607,-3.25136 -3.7255,1.3212 -7.02506,3.62606 -10.53759,5.43909 -3.55084,3.15164 -5.70331,7.41772 -8.06125,11.47242 0,0 10.09576,-4.63097 10.09576,-4.63097 z" />
  </g>
</svg>
